Point(21) = {0.840000,0.000000,0.100000,0.020000};
Point(46) = {0.840000,0.360000,0.100000,0.020000};
Point(23) = {0.840000,0.200000,0.100000,0.020000};
Point(25) = {0.840000,0.520000,0.100000,0.020000};
Point(27) = {0.840000,1.000000,0.100000,0.020000};
Point(29) = {0.000000,1.000000,0.100000,0.020000};
Point(59) = {0.000000,0.640000,0.100000,0.020000};
Point(31) = {0.000000,0.800000,0.100000,0.020000};
Point(33) = {0.000000,0.480000,0.100000,0.020000};
Point(35) = {0.000000,0.000000,0.100000,0.020000};
Point(1) = {0.840000,0.000000,0.000000,0.020000};
Point(3) = {0.840000,0.360000,0.000000,0.020000};
Point(2) = {0.840000,0.200000,0.000000,0.020000};
Point(4) = {0.840000,0.520000,0.000000,0.020000};
Point(5) = {0.840000,1.000000,0.000000,0.020000};
Point(6) = {0.000000,1.000000,0.000000,0.020000};
Point(8) = {0.000000,0.640000,0.000000,0.020000};
Point(7) = {0.000000,0.800000,0.000000,0.020000};
Point(9) = {0.000000,0.480000,0.000000,0.020000};
Point(0) = {0.000000,0.000000,0.000000,0.020000};
Line(22) = {1,21};
Line(24) = {2,23};
Line(26) = {4,25};
Line(28) = {5,27};
Line(30) = {6,29};
Line(32) = {7,31};
Line(36) = {0,35};
Line(34) = {9,33};
Line(40) = {21,35};
Line(43) = {23,21};
Circle(47) = {25,46,23};
Line(50) = {27,25};
Line(53) = {29,27};
Line(56) = {31,29};
Circle(60) = {33,59,31};
Line(63) = {35,33};
Line(18) = {1,0};
Line(17) = {2,1};
Circle(16) = {4,3,2};
Line(15) = {5,4};
Line(14) = {6,5};
Line(13) = {7,6};
Circle(12) = {9,8,7};
Line(11) = {0,9};
Line Loop(39) = {18,36,-40,-22};
Line Loop(42) = {17,22,-43,-24};
Line Loop(45) = {16,24,-47,-26};
Line Loop(49) = {15,26,-50,-28};
Line Loop(52) = {14,28,-53,-30};
Line Loop(55) = {13,30,-56,-32};
Line Loop(58) = {12,32,-60,-34};
Line Loop(62) = {11,34,-63,-36};
Line Loop(67) = {63,60,56,53,50,47,43,40};
Point(10) = {0.420000,0.500000,0.000000,0.020000};
Line Loop(19) = {11,12,13,14,15,16,17,18};
Plane Surface(41) = {39};
Plane Surface(44) = {42};
Ruled Surface(48) = {45};
Plane Surface(51) = {49};
Plane Surface(54) = {52};
Plane Surface(57) = {55};
Ruled Surface(61) = {58};
Plane Surface(64) = {62};
Plane Surface(65) = {67};
Plane Surface(20) = {19};
Point{10} In Surface{20};
Surface Loop(66) = {-20,65,64,61,57,54,51,48,44,41};
Volume(68) = {66};
Physical Point(21) = {21};
Physical Point(23) = {23};
Physical Point(25) = {25};
Physical Point(27) = {27};
Physical Point(29) = {29};
Physical Point(31) = {31};
Physical Point(33) = {33};
Physical Point(35) = {35};
Physical Point(1) = {1};
Physical Point(2) = {2};
Physical Point(4) = {4};
Physical Point(5) = {5};
Physical Point(6) = {6};
Physical Point(7) = {7};
Physical Point(9) = {9};
Physical Point(0) = {0};
Physical Line(22) = {22};
Physical Line(24) = {24};
Physical Line(26) = {26};
Physical Line(28) = {28};
Physical Line(30) = {30};
Physical Line(32) = {32};
Physical Line(36) = {36};
Physical Line(34) = {34};
Physical Line(40) = {40};
Physical Line(43) = {43};
Physical Line(47) = {47};
Physical Line(50) = {50};
Physical Line(53) = {53};
Physical Line(56) = {56};
Physical Line(60) = {60};
Physical Line(63) = {63};
Physical Line(18) = {18};
Physical Line(17) = {17};
Physical Line(16) = {16};
Physical Line(15) = {15};
Physical Line(14) = {14};
Physical Line(13) = {13};
Physical Line(12) = {12};
Physical Line(11) = {11};
Physical Point(10) = {10};
Physical Surface(41) = {41};
Physical Surface(44) = {44};
Physical Surface(48) = {48};
Physical Surface(51) = {51};
Physical Surface(54) = {54};
Physical Surface(57) = {57};
Physical Surface(61) = {61};
Physical Surface(64) = {64};
Physical Surface(65) = {65};
Physical Surface(20) = {20};
Physical Volume(68) = {68};
