Point(126) = {0.150000,0.700000,0.100000,0.020000};
Point(130) = {0.150000,0.700000,0.100000,0.020000};
Point(67) = {0.150000,0.650000,0.100000,0.020000};
Point(134) = {0.150000,0.700000,0.100000,0.020000};
Point(69) = {0.100000,0.700000,0.100000,0.020000};
Point(138) = {0.150000,0.700000,0.100000,0.020000};
Point(71) = {0.150000,0.750000,0.100000,0.020000};
Point(73) = {0.200000,0.700000,0.100000,0.020000};
Point(142) = {-0.450000,0.700000,0.100000,0.020000};
Point(146) = {-0.450000,0.700000,0.100000,0.020000};
Point(75) = {-0.450000,0.650000,0.100000,0.020000};
Point(150) = {-0.450000,0.700000,0.100000,0.020000};
Point(77) = {-0.500000,0.700000,0.100000,0.020000};
Point(154) = {-0.450000,0.700000,0.100000,0.020000};
Point(79) = {-0.450000,0.750000,0.100000,0.020000};
Point(81) = {-0.400000,0.700000,0.100000,0.020000};
Point(158) = {-0.150000,0.800000,0.100000,0.020000};
Point(162) = {-0.150000,0.800000,0.100000,0.020000};
Point(83) = {-0.150000,0.750000,0.100000,0.020000};
Point(166) = {-0.150000,0.800000,0.100000,0.020000};
Point(85) = {-0.200000,0.800000,0.100000,0.020000};
Point(170) = {-0.150000,0.800000,0.100000,0.020000};
Point(87) = {-0.150000,0.850000,0.100000,0.020000};
Point(89) = {-0.100000,0.800000,0.100000,0.020000};
Point(174) = {-0.150000,0.250000,0.100000,0.020000};
Point(178) = {-0.150000,0.250000,0.100000,0.020000};
Point(91) = {-0.150000,0.200000,0.100000,0.020000};
Point(182) = {-0.150000,0.250000,0.100000,0.020000};
Point(93) = {-0.200000,0.250000,0.100000,0.020000};
Point(186) = {-0.150000,0.250000,0.100000,0.020000};
Point(95) = {-0.150000,0.300000,0.100000,0.020000};
Point(97) = {-0.100000,0.250000,0.100000,0.020000};
Point(99) = {0.000000,0.200000,0.100000,0.020000};
Point(101) = {0.300000,0.700000,0.100000,0.020000};
Point(103) = {0.300000,0.900000,0.100000,0.020000};
Point(105) = {0.000000,0.900000,0.100000,0.020000};
Point(107) = {0.000000,1.000000,0.100000,0.020000};
Point(109) = {-0.300000,1.000000,0.100000,0.020000};
Point(111) = {-0.300000,0.900000,0.100000,0.020000};
Point(113) = {-0.600000,0.900000,0.100000,0.020000};
Point(115) = {-0.600000,0.700000,0.100000,0.020000};
Point(117) = {-0.300000,0.200000,0.100000,0.020000};
Point(119) = {-0.300000,0.000000,0.100000,0.020000};
Point(121) = {0.000000,0.000000,0.100000,0.020000};
Point(60) = {0.150000,0.650000,0.000000,0.020000};
Point(59) = {0.100000,0.700000,0.000000,0.020000};
Point(56) = {0.150000,0.700000,0.000000,0.020000};
Point(58) = {0.150000,0.750000,0.000000,0.020000};
Point(57) = {0.200000,0.700000,0.000000,0.020000};
Point(50) = {-0.450000,0.650000,0.000000,0.020000};
Point(49) = {-0.500000,0.700000,0.000000,0.020000};
Point(46) = {-0.450000,0.700000,0.000000,0.020000};
Point(48) = {-0.450000,0.750000,0.000000,0.020000};
Point(47) = {-0.400000,0.700000,0.000000,0.020000};
Point(40) = {-0.150000,0.750000,0.000000,0.020000};
Point(39) = {-0.200000,0.800000,0.000000,0.020000};
Point(36) = {-0.150000,0.800000,0.000000,0.020000};
Point(38) = {-0.150000,0.850000,0.000000,0.020000};
Point(37) = {-0.100000,0.800000,0.000000,0.020000};
Point(30) = {-0.150000,0.200000,0.000000,0.020000};
Point(29) = {-0.200000,0.250000,0.000000,0.020000};
Point(26) = {-0.150000,0.250000,0.000000,0.020000};
Point(28) = {-0.150000,0.300000,0.000000,0.020000};
Point(27) = {-0.100000,0.250000,0.000000,0.020000};
Point(11) = {0.000000,0.200000,0.000000,0.020000};
Point(10) = {0.300000,0.700000,0.000000,0.020000};
Point(9) = {0.300000,0.900000,0.000000,0.020000};
Point(8) = {0.000000,0.900000,0.000000,0.020000};
Point(7) = {0.000000,1.000000,0.000000,0.020000};
Point(6) = {-0.300000,1.000000,0.000000,0.020000};
Point(5) = {-0.300000,0.900000,0.000000,0.020000};
Point(4) = {-0.600000,0.900000,0.000000,0.020000};
Point(3) = {-0.600000,0.700000,0.000000,0.020000};
Point(2) = {-0.300000,0.200000,0.000000,0.020000};
Point(1) = {-0.300000,0.000000,0.000000,0.020000};
Point(0) = {0.000000,0.000000,0.000000,0.020000};
Line(68) = {60,67};
Line(70) = {59,69};
Line(74) = {57,73};
Line(72) = {58,71};
Line(76) = {50,75};
Line(78) = {49,77};
Line(82) = {47,81};
Line(80) = {48,79};
Line(84) = {40,83};
Line(86) = {39,85};
Line(90) = {37,89};
Line(88) = {38,87};
Line(92) = {30,91};
Line(94) = {29,93};
Line(98) = {27,97};
Line(96) = {28,95};
Line(100) = {11,99};
Line(102) = {10,101};
Line(104) = {9,103};
Line(106) = {8,105};
Line(108) = {7,107};
Line(110) = {6,109};
Line(112) = {5,111};
Line(114) = {4,113};
Line(116) = {3,115};
Line(118) = {2,117};
Line(122) = {0,121};
Line(120) = {1,119};
Circle(127) = {67,126,73};
Circle(131) = {69,130,67};
Circle(135) = {71,134,69};
Circle(139) = {73,138,71};
Circle(143) = {75,142,81};
Circle(147) = {77,146,75};
Circle(151) = {79,150,77};
Circle(155) = {81,154,79};
Circle(159) = {83,158,89};
Circle(163) = {85,162,83};
Circle(167) = {87,166,85};
Circle(171) = {89,170,87};
Circle(175) = {91,174,97};
Circle(179) = {93,178,91};
Circle(183) = {95,182,93};
Circle(187) = {97,186,95};
Line(190) = {99,121};
Line(193) = {101,99};
Line(196) = {103,101};
Line(199) = {105,103};
Line(202) = {107,105};
Line(205) = {109,107};
Line(208) = {111,109};
Line(211) = {113,111};
Line(214) = {115,113};
Line(217) = {117,115};
Line(220) = {119,117};
Line(223) = {121,119};
Circle(65) = {60,56,57};
Circle(64) = {59,56,60};
Circle(63) = {58,56,59};
Circle(62) = {57,56,58};
Circle(55) = {50,46,47};
Circle(54) = {49,46,50};
Circle(53) = {48,46,49};
Circle(52) = {47,46,48};
Circle(45) = {40,36,37};
Circle(44) = {39,36,40};
Circle(43) = {38,36,39};
Circle(42) = {37,36,38};
Circle(35) = {30,26,27};
Circle(34) = {29,26,30};
Circle(33) = {28,26,29};
Circle(32) = {27,26,28};
Line(24) = {11,0};
Line(23) = {10,11};
Line(22) = {9,10};
Line(21) = {8,9};
Line(20) = {7,8};
Line(19) = {6,7};
Line(18) = {5,6};
Line(17) = {4,5};
Line(16) = {3,4};
Line(15) = {2,3};
Line(14) = {1,2};
Line(13) = {0,1};
Line Loop(125) = {65,74,-127,-68};
Line Loop(129) = {64,68,-131,-70};
Line Loop(133) = {63,70,-135,-72};
Line Loop(137) = {62,72,-139,-74};
Line Loop(141) = {55,82,-143,-76};
Line Loop(145) = {54,76,-147,-78};
Line Loop(149) = {53,78,-151,-80};
Line Loop(153) = {52,80,-155,-82};
Line Loop(157) = {45,90,-159,-84};
Line Loop(161) = {44,84,-163,-86};
Line Loop(165) = {43,86,-167,-88};
Line Loop(169) = {42,88,-171,-90};
Line Loop(173) = {35,98,-175,-92};
Line Loop(177) = {34,92,-179,-94};
Line Loop(181) = {33,94,-183,-96};
Line Loop(185) = {32,96,-187,-98};
Line Loop(189) = {24,122,-190,-100};
Line Loop(192) = {23,100,-193,-102};
Line Loop(195) = {22,102,-196,-104};
Line Loop(198) = {21,104,-199,-106};
Line Loop(201) = {20,106,-202,-108};
Line Loop(204) = {19,108,-205,-110};
Line Loop(207) = {18,110,-208,-112};
Line Loop(210) = {17,112,-211,-114};
Line Loop(213) = {16,114,-214,-116};
Line Loop(216) = {15,116,-217,-118};
Line Loop(219) = {14,118,-220,-120};
Line Loop(222) = {13,120,-223,-122};
Line Loop(231) = {139,135,131,127};
Line Loop(230) = {155,151,147,143};
Line Loop(229) = {171,167,163,159};
Line Loop(228) = {187,183,179,175};
Line Loop(227) = {223,220,217,214,211,208,205,202,199,196,193,190};
Point(12) = {-0.150000,0.500000,0.000000,0.020000};
Line Loop(61) = {62,63,64,65};
Line Loop(51) = {52,53,54,55};
Line Loop(41) = {42,43,44,45};
Line Loop(31) = {32,33,34,35};
Line Loop(25) = {13,14,15,16,17,18,19,20,21,22,23,24};
Ruled Surface(128) = {125};
Ruled Surface(132) = {129};
Ruled Surface(136) = {133};
Ruled Surface(140) = {137};
Ruled Surface(144) = {141};
Ruled Surface(148) = {145};
Ruled Surface(152) = {149};
Ruled Surface(156) = {153};
Ruled Surface(160) = {157};
Ruled Surface(164) = {161};
Ruled Surface(168) = {165};
Ruled Surface(172) = {169};
Ruled Surface(176) = {173};
Ruled Surface(180) = {177};
Ruled Surface(184) = {181};
Ruled Surface(188) = {185};
Plane Surface(191) = {189};
Plane Surface(194) = {192};
Plane Surface(197) = {195};
Plane Surface(200) = {198};
Plane Surface(203) = {201};
Plane Surface(206) = {204};
Plane Surface(209) = {207};
Plane Surface(212) = {210};
Plane Surface(215) = {213};
Plane Surface(218) = {216};
Plane Surface(221) = {219};
Plane Surface(224) = {222};
Plane Surface(225) = {227,228,229,230,231};
Plane Surface(66) = {25,31,41,51,61};
Point{12} In Surface{66};
Surface Loop(226) = {-66,225,224,221,218,215,212,209,206,203,200,197,194,191,-188,-184,-180,-176,-172,-168,-164,-160,-156,-152,-148,-144,-140,-136,-132,-128};
Volume(232) = {226};
Physical Point(67) = {67};
Physical Point(69) = {69};
Physical Point(71) = {71};
Physical Point(73) = {73};
Physical Point(75) = {75};
Physical Point(77) = {77};
Physical Point(79) = {79};
Physical Point(81) = {81};
Physical Point(83) = {83};
Physical Point(85) = {85};
Physical Point(87) = {87};
Physical Point(89) = {89};
Physical Point(91) = {91};
Physical Point(93) = {93};
Physical Point(95) = {95};
Physical Point(97) = {97};
Physical Point(99) = {99};
Physical Point(101) = {101};
Physical Point(103) = {103};
Physical Point(105) = {105};
Physical Point(107) = {107};
Physical Point(109) = {109};
Physical Point(111) = {111};
Physical Point(113) = {113};
Physical Point(115) = {115};
Physical Point(117) = {117};
Physical Point(119) = {119};
Physical Point(121) = {121};
Physical Point(60) = {60};
Physical Point(59) = {59};
Physical Point(58) = {58};
Physical Point(57) = {57};
Physical Point(50) = {50};
Physical Point(49) = {49};
Physical Point(48) = {48};
Physical Point(47) = {47};
Physical Point(40) = {40};
Physical Point(39) = {39};
Physical Point(38) = {38};
Physical Point(37) = {37};
Physical Point(30) = {30};
Physical Point(29) = {29};
Physical Point(28) = {28};
Physical Point(27) = {27};
Physical Point(11) = {11};
Physical Point(10) = {10};
Physical Point(9) = {9};
Physical Point(8) = {8};
Physical Point(7) = {7};
Physical Point(6) = {6};
Physical Point(5) = {5};
Physical Point(4) = {4};
Physical Point(3) = {3};
Physical Point(2) = {2};
Physical Point(1) = {1};
Physical Point(0) = {0};
Physical Line(68) = {68};
Physical Line(70) = {70};
Physical Line(74) = {74};
Physical Line(72) = {72};
Physical Line(76) = {76};
Physical Line(78) = {78};
Physical Line(82) = {82};
Physical Line(80) = {80};
Physical Line(84) = {84};
Physical Line(86) = {86};
Physical Line(90) = {90};
Physical Line(88) = {88};
Physical Line(92) = {92};
Physical Line(94) = {94};
Physical Line(98) = {98};
Physical Line(96) = {96};
Physical Line(100) = {100};
Physical Line(102) = {102};
Physical Line(104) = {104};
Physical Line(106) = {106};
Physical Line(108) = {108};
Physical Line(110) = {110};
Physical Line(112) = {112};
Physical Line(114) = {114};
Physical Line(116) = {116};
Physical Line(118) = {118};
Physical Line(122) = {122};
Physical Line(120) = {120};
Physical Line(127) = {127};
Physical Line(131) = {131};
Physical Line(135) = {135};
Physical Line(139) = {139};
Physical Line(143) = {143};
Physical Line(147) = {147};
Physical Line(151) = {151};
Physical Line(155) = {155};
Physical Line(159) = {159};
Physical Line(163) = {163};
Physical Line(167) = {167};
Physical Line(171) = {171};
Physical Line(175) = {175};
Physical Line(179) = {179};
Physical Line(183) = {183};
Physical Line(187) = {187};
Physical Line(190) = {190};
Physical Line(193) = {193};
Physical Line(196) = {196};
Physical Line(199) = {199};
Physical Line(202) = {202};
Physical Line(205) = {205};
Physical Line(208) = {208};
Physical Line(211) = {211};
Physical Line(214) = {214};
Physical Line(217) = {217};
Physical Line(220) = {220};
Physical Line(223) = {223};
Physical Line(65) = {65};
Physical Line(64) = {64};
Physical Line(63) = {63};
Physical Line(62) = {62};
Physical Line(55) = {55};
Physical Line(54) = {54};
Physical Line(53) = {53};
Physical Line(52) = {52};
Physical Line(45) = {45};
Physical Line(44) = {44};
Physical Line(43) = {43};
Physical Line(42) = {42};
Physical Line(35) = {35};
Physical Line(34) = {34};
Physical Line(33) = {33};
Physical Line(32) = {32};
Physical Line(24) = {24};
Physical Line(23) = {23};
Physical Line(22) = {22};
Physical Line(21) = {21};
Physical Line(20) = {20};
Physical Line(19) = {19};
Physical Line(18) = {18};
Physical Line(17) = {17};
Physical Line(16) = {16};
Physical Line(15) = {15};
Physical Line(14) = {14};
Physical Line(13) = {13};
Physical Point(12) = {12};
Physical Surface(128) = {128};
Physical Surface(132) = {132};
Physical Surface(136) = {136};
Physical Surface(140) = {140};
Physical Surface(144) = {144};
Physical Surface(148) = {148};
Physical Surface(152) = {152};
Physical Surface(156) = {156};
Physical Surface(160) = {160};
Physical Surface(164) = {164};
Physical Surface(168) = {168};
Physical Surface(172) = {172};
Physical Surface(176) = {176};
Physical Surface(180) = {180};
Physical Surface(184) = {184};
Physical Surface(188) = {188};
Physical Surface(191) = {191};
Physical Surface(194) = {194};
Physical Surface(197) = {197};
Physical Surface(200) = {200};
Physical Surface(203) = {203};
Physical Surface(206) = {206};
Physical Surface(209) = {209};
Physical Surface(212) = {212};
Physical Surface(215) = {215};
Physical Surface(218) = {218};
Physical Surface(221) = {221};
Physical Surface(224) = {224};
Physical Surface(225) = {225};
Physical Surface(66) = {66};
Physical Volume(232) = {232};
